# Blender 3.4.1
# www.blender.org
mtllib Door.mtl
o Cube.001_Cube.003
v -0.007634 0.984859 -0.670509
v -0.007634 1.018141 -0.670509
v -0.007634 0.984859 -0.703791
v -0.007634 1.018141 -0.703791
v 0.041063 0.984859 -0.670509
v 0.041063 1.018141 -0.670509
v 0.041063 0.984859 -0.700238
v 0.041063 1.018141 -0.700238
v 0.025867 0.984859 -0.703791
v 0.025867 1.018141 -0.703791
v 0.025867 0.984859 -0.670509
v 0.025867 1.018141 -0.670509
v 0.038099 1.018141 -0.550719
v 0.038099 0.984859 -0.550719
v 0.028832 0.984859 -0.550719
v 0.028832 1.018141 -0.550719
vn -1.0000 -0.0000 -0.0000
vn 0.2277 -0.0000 -0.9737
vn 1.0000 -0.0000 -0.0000
vn -0.0000 -0.0000 1.0000
vn -0.0000 -1.0000 -0.0000
vn -0.0000 1.0000 -0.0000
vn -0.0000 -0.0000 -1.0000
vn 0.9997 -0.0000 0.0247
vn -0.9997 -0.0000 0.0247
vt 0.375000 0.000000
vt 0.375000 1.000000
vt 0.125000 0.750000
vt 0.625000 0.000000
vt 0.625000 1.000000
vt 0.875000 0.750000
vt 0.125000 0.500000
vt 0.375000 0.250000
vt 0.875000 0.500000
vt 0.625000 0.250000
vt 0.375000 0.750000
vt 0.625000 0.750000
vt 0.375000 0.526685
vt 0.625000 0.526685
vt 0.296983 0.500000
vt 0.375000 0.421983
vt 0.703017 0.500000
vt 0.625000 0.421983
vt 0.296983 0.750000
vt 0.375000 0.828017
vt 0.703017 0.750000
vt 0.625000 0.828017
vt 0.625000 0.750000
vt 0.375000 0.750000
vt 0.296983 0.750000
vt 0.375000 0.828017
vt 0.703017 0.750000
vt 0.625000 0.828017
s 0
usemtl Material.002
f 1/1/1 2/4/1 4/10/1 3/8/1
f 9/16/2 10/18/2 8/14/2 7/13/2
f 7/13/3 8/14/3 6/12/3 5/11/3
f 11/20/4 12/22/4 2/5/4 1/2/4
f 9/15/5 7/13/5 5/11/5 11/19/5
f 10/17/6 4/9/6 2/6/6 12/21/6
f 8/14/6 10/17/6 12/21/6 6/12/6
f 3/7/5 9/15/5 11/19/5 1/3/5
f 11/19/5 5/11/5 14/24/5 15/25/5
f 3/8/7 4/10/7 10/18/7 9/16/7
f 14/24/4 13/23/4 16/28/4 15/26/4
f 6/12/6 12/21/6 16/27/6 13/23/6
f 5/11/8 6/12/8 13/23/8 14/24/8
f 12/22/9 11/20/9 15/26/9 16/28/9
o Cube_Cube.001
v -0.033401 -0.001670 0.033414
v -0.033401 2.035269 0.033414
v -0.033401 -0.001670 -0.023401
v -0.033401 2.035269 -0.023401
v 0.033401 -0.001670 0.033414
v 0.033401 2.035269 0.033414
v 0.033401 -0.001670 -0.023401
v 0.033401 2.035269 -0.023401
v -0.033401 -0.001670 -0.756599
v -0.033401 2.035269 -0.756599
v -0.033401 -0.001670 -0.815795
v -0.033401 2.035269 -0.815795
v 0.033401 -0.001670 -0.756599
v 0.033401 2.035269 -0.756599
v 0.033401 -0.001670 -0.815795
v 0.033401 2.035269 -0.815795
v -0.033401 1.970441 0.033414
v -0.033401 1.971892 -0.023401
v 0.033401 1.971892 -0.023401
v 0.033401 1.970441 0.033414
v -0.033401 1.971892 -0.756599
v -0.033401 1.972156 -0.815795
v 0.033401 1.972156 -0.815795
v 0.033401 1.971892 -0.756599
vn -1.0000 -0.0000 -0.0000
vn 1.0000 -0.0000 -0.0000
vn -0.0000 -0.0000 1.0000
vn -0.0000 -1.0000 -0.0000
vn -0.0000 1.0000 -0.0000
vn -0.0000 -0.0000 -1.0000
vt 0.125000 0.750000
vt 0.375000 1.000000
vt 0.375000 0.000000
vt 0.625000 0.000000
vt 0.625000 1.000000
vt 0.875000 0.750000
vt 0.125000 0.500000
vt 0.375000 0.250000
vt 0.625000 0.250000
vt 0.875000 0.500000
vt 0.375000 0.750000
vt 0.625000 0.750000
vt 0.375000 0.500000
vt 0.625000 0.500000
vt 0.125000 0.750000
vt 0.375000 1.000000
vt 0.375000 0.000000
vt 0.625000 0.000000
vt 0.875000 0.750000
vt 0.125000 0.500000
vt 0.375000 0.250000
vt 0.625000 0.250000
vt 0.875000 0.500000
vt 0.375000 0.750000
vt 0.625000 0.750000
vt 0.375000 0.500000
vt 0.625000 0.500000
vt 0.616285 1.000000
vt 0.616285 0.000000
vt 0.616285 0.250000
vt 0.616285 0.500000
vt 0.616285 0.750000
vt 0.617518 0.000000
vt 0.617518 1.000000
vt 0.617518 0.250000
vt 0.617518 0.500000
vt 0.617518 0.750000
s 0
usemtl Material.003
f 33/57/10 18/32/10 20/37/10 34/58/10
f 35/59/11 40/65/11 30/53/11 24/42/11
f 35/59/11 24/42/11 22/40/11 36/60/11
f 36/60/12 22/40/12 18/33/12 33/56/12
f 19/35/13 23/41/13 21/39/13 17/29/13
f 24/42/14 20/38/14 18/34/14 22/40/14
f 37/61/10 26/46/10 28/50/10 38/63/10
f 38/63/15 28/50/15 32/55/15 39/64/15
f 39/64/11 32/55/11 30/53/11 40/65/11
f 20/37/10 26/46/10 37/61/10 34/58/10
f 27/48/13 31/54/13 29/52/13 25/43/13
f 32/55/14 28/51/14 26/47/14 30/53/14
f 21/39/12 36/60/12 33/56/12 17/30/12
f 23/41/11 35/59/11 36/60/11 21/39/11
f 19/36/15 34/58/15 35/59/15 23/41/15
f 17/31/10 33/57/10 34/58/10 19/36/10
f 29/52/12 40/65/12 37/62/12 25/44/12
f 31/54/11 39/64/11 40/65/11 29/52/11
f 27/49/15 38/63/15 39/64/15 31/54/15
f 25/45/10 37/61/10 38/63/10 27/49/10
f 34/58/13 37/62/13 40/65/13 35/59/13
f 24/42/14 30/53/14 26/47/14 20/38/14
o Plane
v -0.015033 0.000000 -0.800000
v -0.015033 2.000000 -0.800000
v -0.015033 0.000000 0.000000
v -0.015033 2.000000 0.000000
vn 1.0000 -0.0000 -0.0000
vt 0.295324 0.933861
vt 0.300170 0.026065
vt 0.702217 0.933831
vt 0.705328 0.028372
s 0
usemtl None
f 41/66/16 42/67/16 44/69/16 43/68/16
o Plane.001
v -0.002884 0.854751 -0.658641
v -0.002884 0.854751 -0.715761
v -0.002884 1.052334 -0.658641
v -0.002884 1.052334 -0.715761
v -0.018776 1.052334 -0.658641
v -0.018776 0.854751 -0.658641
v -0.018776 0.854751 -0.715761
v -0.018776 1.052334 -0.715761
vn -1.0000 -0.0000 -0.0000
vn 1.0000 -0.0000 -0.0000
vn -0.0000 -0.0000 1.0000
vn -0.0000 -0.0000 -1.0000
vn -0.0000 -1.0000 -0.0000
vn -0.0000 1.0000 -0.0000
vt 0.000000 0.000000
vt 1.000000 0.000000
vt 0.000000 1.000000
vt 1.000000 1.000000
vt 0.000000 1.000000
vt 0.000000 0.000000
vt 1.000000 0.000000
vt 1.000000 1.000000
s 0
usemtl Material.001
f 45/70/17 47/72/17 48/73/17 46/71/17
f 50/75/18 51/76/18 52/77/18 49/74/18
f 46/71/19 48/73/19 52/77/19 51/76/19
f 47/72/20 45/70/20 50/75/20 49/74/20
f 48/73/21 47/72/21 49/74/21 52/77/21
f 45/70/22 46/71/22 51/76/22 50/75/22
